<svg xmlns="http://www.w3.org/2000/svg" viewBox="0 0 500 73.7"><path d="M6.85,72.49V33.33H0V22.55H6.85V16.71q0-9.06,4.58-12.88T23.86,0H29.4V11H25.88q-3.33,0-4.74,1.31c-.94.88-1.41,2.35-1.41,4.43v5.84H30.51V33.33H19.73V72.49Zm33.83,0V0H53.57V72.49Z" transform="translate(0 0)" fill="#333"/><path d="M88.5,73.7a27.24,27.24,0,0,1-13.39-3.22A23.33,23.33,0,0,1,66,61.42a26.74,26.74,0,0,1-3.32-13.49,28.54,28.54,0,0,1,3.27-13.8A23.79,23.79,0,0,1,75,24.72,26.61,26.61,0,0,1,88.6,21.35a25.7,25.7,0,0,1,13,3.22,23.08,23.08,0,0,1,8.81,8.81,24.67,24.67,0,0,1,3.17,12.43c0,.74,0,1.51,0,2.32s-.08,1.64-.15,2.52h-38a13,13,0,0,0,4.08,9.16,12.83,12.83,0,0,0,8.91,3.32A11.76,11.76,0,0,0,95,61.37a11,11,0,0,0,4-4.58h13.09a23.84,23.84,0,0,1-4.68,8.61,23.21,23.21,0,0,1-8,6.09A25.59,25.59,0,0,1,88.5,73.7Zm.1-41.88a13.69,13.69,0,0,0-8.35,2.67c-2.42,1.77-4,4.48-4.64,8.1h24.87a10.86,10.86,0,0,0-3.62-7.85A12.06,12.06,0,0,0,88.6,31.82Z" transform="translate(0 0)" fill="#333"/><path d="M113.77,72.49l18.13-25-18.13-25h13.8l12.69,17.72,12.58-17.72h13.9l-18.23,25,18.23,25h-13.9L140.26,54.77,127.57,72.49Z" transform="translate(0 0)" fill="#333"/><path d="M192.84,73.7a27.16,27.16,0,0,1-13.4-3.21,23.33,23.33,0,0,1-9.17-9A26.75,26.75,0,0,1,166.94,48a28.53,28.53,0,0,1,3.25-13.8,23.75,23.75,0,0,1,9.06-9.42,26.67,26.67,0,0,1,13.64-3.39,25.8,25.8,0,0,1,13,3.21,23.18,23.18,0,0,1,8.82,8.81,24.65,24.65,0,0,1,3.18,12.43c0,.74,0,1.51,0,2.31s-.08,1.65-.15,2.52l-38,0a13,13,0,0,0,4.08,9.16,12.85,12.85,0,0,0,8.92,3.31,11.68,11.68,0,0,0,6.59-1.77,10.84,10.84,0,0,0,4-4.58l13.09,0a23.78,23.78,0,0,1-4.67,8.62,23.24,23.24,0,0,1-8.05,6.1A25.58,25.58,0,0,1,192.84,73.7Zm.06-41.88a13.72,13.72,0,0,0-8.36,2.67,12.4,12.4,0,0,0-4.62,8.11l24.87,0a10.9,10.9,0,0,0-3.63-7.85A12,12,0,0,0,192.9,31.82Z" transform="translate(0 0)" fill="#d94d14"/><path d="M246.88,73.7a29.43,29.43,0,0,1-11.68-2.16,20.28,20.28,0,0,1-8.06-6,17.36,17.36,0,0,1-3.62-8.86h13a8.33,8.33,0,0,0,3.27,5,10.93,10.93,0,0,0,6.9,2.06q4.23,0,6.19-1.71a5.09,5.09,0,0,0,2-3.92A4.32,4.32,0,0,0,252,53.72a49.83,49.83,0,0,0-7.85-2.27q-3.22-.71-6.54-1.71a30.21,30.21,0,0,1-6.1-2.57,13.3,13.3,0,0,1-4.48-4,10.41,10.41,0,0,1-1.71-6.09,14.13,14.13,0,0,1,5.29-11.17q5.28-4.53,14.85-4.53,8.86,0,14.15,4.12a16.77,16.77,0,0,1,6.29,11.38H253.73q-1.11-5.54-8.36-5.54a9.48,9.48,0,0,0-5.59,1.41,4.21,4.21,0,0,0-2,3.53c0,1.47,1,2.65,2.92,3.52a43,43,0,0,0,7.75,2.42q5.23,1.2,9.62,2.67a16,16,0,0,1,7,4.33q2.63,2.87,2.62,8.2a14,14,0,0,1-2.42,8.36,16.67,16.67,0,0,1-7.24,5.84A27.27,27.27,0,0,1,246.88,73.7Z" transform="translate(0 0)" fill="#333"/><path d="M300.85,73.7a27.21,27.21,0,0,1-13.39-3.22,23.36,23.36,0,0,1-9.17-9.06A26.84,26.84,0,0,1,275,47.93a28.54,28.54,0,0,1,3.27-13.8,23.79,23.79,0,0,1,9.06-9.41A26.62,26.62,0,0,1,301,21.35a25.7,25.7,0,0,1,13,3.22,23.22,23.22,0,0,1,8.81,8.81,24.77,24.77,0,0,1,3.17,12.43c0,.74,0,1.51-.05,2.32s-.09,1.64-.15,2.52h-38a12.62,12.62,0,0,0,13,12.48,11.75,11.75,0,0,0,6.59-1.76,11,11,0,0,0,4-4.58h13.09a23.84,23.84,0,0,1-4.68,8.61,23.25,23.25,0,0,1-8.06,6.09A25.58,25.58,0,0,1,300.85,73.7Zm.1-41.88a13.72,13.72,0,0,0-8.36,2.67,12.32,12.32,0,0,0-4.63,8.1h24.87a10.83,10.83,0,0,0-3.63-7.85A12,12,0,0,0,301,31.82Z" transform="translate(0 0)" fill="#333"/><path d="M334.27,72.49V22.55h11.48L347,31.92a20.87,20.87,0,0,1,7.4-7.7,20.63,20.63,0,0,1,11-2.87V34.94h-3.63a20.5,20.5,0,0,0-7.55,1.31A10.17,10.17,0,0,0,349,40.78c-1.24,2.15-1.86,5.13-1.86,9V72.49Z" transform="translate(0 0)" fill="#333"/><path d="M386.84,72.49,368.51,22.55H382l12.69,37.76,12.69-37.76h13.49L402.44,72.49Z" transform="translate(0 0)" fill="#333"/><path d="M448.36,73.7A27.21,27.21,0,0,1,435,70.48a23.36,23.36,0,0,1-9.17-9.06,26.84,26.84,0,0,1-3.32-13.49,28.54,28.54,0,0,1,3.27-13.8,23.74,23.74,0,0,1,9.07-9.41,26.56,26.56,0,0,1,13.64-3.37,25.7,25.7,0,0,1,13,3.22,23.15,23.15,0,0,1,8.81,8.81,24.77,24.77,0,0,1,3.17,12.43c0,.74,0,1.51-.05,2.32s-.09,1.64-.15,2.52h-38a13,13,0,0,0,4.08,9.16,12.83,12.83,0,0,0,8.91,3.32,11.75,11.75,0,0,0,6.59-1.76,10.92,10.92,0,0,0,4-4.58h13.09a23.84,23.84,0,0,1-4.68,8.61,23.25,23.25,0,0,1-8.06,6.09A25.55,25.55,0,0,1,448.36,73.7Zm.1-41.88a13.72,13.72,0,0,0-8.36,2.67,12.32,12.32,0,0,0-4.63,8.1h24.87a10.83,10.83,0,0,0-3.63-7.85A12,12,0,0,0,448.46,31.82Z" transform="translate(0 0)" fill="#333"/><path d="M481.67,20.56V6.34h5.23a6,6,0,0,1,2.81.58,4,4,0,0,1,1.66,1.57,4.43,4.43,0,0,1,.54,2.18,4.31,4.31,0,0,1-.68,2.38,3.85,3.85,0,0,1-2.12,1.56l2.95,5.95h-3L486.43,15h-2.16v5.6Zm2.6-7.51h2.46a2.54,2.54,0,0,0,1.91-.63,2.29,2.29,0,0,0,.61-1.67,2.19,2.19,0,0,0-.6-1.62,2.61,2.61,0,0,0-1.94-.61h-2.44Z" transform="translate(0 0)" fill="#333"/><path d="M498.2,6.71a12.45,12.45,0,0,0-5-5,13.5,13.5,0,0,0-13.22,0,12.48,12.48,0,0,0-5.05,5,13.66,13.66,0,0,0-1.8,6.75,13.51,13.51,0,0,0,1.78,6.68,12.48,12.48,0,0,0,5,5,13.46,13.46,0,0,0,13.38,0,12.48,12.48,0,0,0,5-5,13.52,13.52,0,0,0,0-13.43ZM486.55,24.15a10.91,10.91,0,0,1-5.33-1.42,10.12,10.12,0,0,1-4-4,10.78,10.78,0,0,1-1.42-5.31,11,11,0,0,1,1.44-5.37,10,10,0,0,1,4-4,10.68,10.68,0,0,1,10.52,0,9.73,9.73,0,0,1,4,4,10.65,10.65,0,0,1,0,10.68h0a10,10,0,0,1-3.95,4A10.91,10.91,0,0,1,486.55,24.15Z" transform="translate(0 0)" fill="#333"/></svg>