<svg width="73" height="73" viewBox="0 0 73 73" fill="none" xmlns="http://www.w3.org/2000/svg">
<g clip-path="url(#clip0_311_2)">
<mask id="mask0_311_2" style="mask-type:luminance" maskUnits="userSpaceOnUse" x="0" y="0" width="73" height="73">
<path d="M72.464 0H0V72.485H72.464V0Z" fill="white"/>
</mask>
<g mask="url(#mask0_311_2)">
<path d="M22.994 44.317H11.071C10.4689 44.3162 9.89176 44.0767 9.46604 43.651C9.04031 43.2252 8.80079 42.6481 8.8 42.046V18.555C10.5254 18.3366 12.1215 17.5261 13.316 16.262C14.0179 17.0142 14.8666 17.6144 15.8097 18.0255C16.7528 18.4366 17.7702 18.6498 18.799 18.652H19.077C20.1059 18.6502 21.1234 18.4372 22.0666 18.0261C23.0097 17.615 23.8584 17.0145 24.56 16.262C25.2621 17.0144 26.1112 17.6147 27.0546 18.0258C27.9981 18.4369 29.0159 18.65 30.045 18.652H30.323C31.3518 18.6501 32.3693 18.4369 33.3124 18.0258C34.2556 17.6147 35.1043 17.0144 35.806 16.262C37.0011 17.5253 38.5969 18.3356 40.322 18.555V19.939C40.322 20.4884 40.5402 21.0153 40.9287 21.4038C41.3172 21.7923 41.8441 22.0105 42.3935 22.0105C42.9429 22.0105 43.4698 21.7923 43.8583 21.4038C44.2468 21.0153 44.465 20.4884 44.465 19.939V18.07C45.8414 17.4961 47.0175 16.5284 47.8457 15.2884C48.6739 14.0483 49.1172 12.5912 49.12 11.1V6.305C49.1184 4.6333 48.4536 3.03052 47.2716 1.84845C46.0895 0.666374 44.4867 0.00158857 42.815 0L6.305 0C4.6333 0.00158857 3.03052 0.666374 1.84845 1.84845C0.666374 3.03052 0.00158857 4.6333 0 6.305L0 11.1C0.00262949 12.5914 0.446009 14.0487 1.27442 15.2888C2.10283 16.5289 3.2793 17.4965 4.656 18.07V42.046C4.65838 43.7464 5.33507 45.3765 6.53766 46.5788C7.74025 47.781 9.37055 48.4571 11.071 48.459H22.994C23.5434 48.459 24.0703 48.2408 24.4588 47.8523C24.8473 47.4638 25.0655 46.9369 25.0655 46.3875C25.0655 45.8381 24.8473 45.3112 24.4588 44.9227C24.0703 44.5342 23.5434 44.317 22.994 44.317ZM37.875 4.143H42.815C43.388 4.14432 43.9371 4.37253 44.3423 4.77769C44.7475 5.18286 44.9757 5.73201 44.977 6.305V11.1C44.9762 12.0052 44.6163 12.8731 43.9762 13.5132C43.3361 14.1533 42.4682 14.5132 41.563 14.514H41.288C40.383 14.5129 39.5153 14.1529 38.8755 13.5128C38.2356 12.8728 37.8758 12.005 37.875 11.1V4.143ZM26.63 4.143H33.73V11.1C33.7284 12.0039 33.3686 12.8703 32.7295 13.5095C32.0903 14.1486 31.2239 14.5084 30.32 14.51H30.042C29.1377 14.5087 28.2709 14.1491 27.6312 13.51C26.9915 12.8708 26.6311 12.0043 26.629 11.1L26.63 4.143ZM15.387 4.143H22.487V11.1C22.4865 12.0049 22.1269 12.8727 21.4872 13.5128C20.8475 14.1528 19.9799 14.5129 19.075 14.514H18.8C17.8947 14.5135 17.0267 14.1536 16.3865 13.5135C15.7464 12.8733 15.3865 12.0053 15.386 11.1L15.387 4.143ZM4.143 6.305C4.14432 5.73201 4.37253 5.18286 4.77769 4.77769C5.18286 4.37253 5.73201 4.14432 6.305 4.143H11.243V11.1C11.2414 12.0041 10.8815 12.8707 10.2421 13.5098C9.60276 14.149 8.73607 14.5087 7.832 14.51H7.552C6.64811 14.5087 5.78163 14.149 5.14258 13.5097C4.50353 12.8705 4.14406 12.0039 4.143 11.1V6.305Z" fill="black"/>
<path d="M66.159 24.028H29.649C27.9773 24.0296 26.3745 24.6944 25.1924 25.8765C24.0104 27.0585 23.3456 28.6613 23.344 30.333V35.128C23.3465 36.6199 23.7901 38.0778 24.6189 39.3183C25.4476 40.5588 26.6247 41.5266 28.002 42.1V66.072C28.0041 67.7722 28.6804 69.4021 29.8827 70.6044C31.0849 71.8066 32.7148 72.4829 34.415 72.485H61.393C63.0934 72.4832 64.7237 71.807 65.9263 70.6048C67.1289 69.4026 67.8056 67.7725 67.808 66.072V42.098C69.1848 41.5246 70.3613 40.5571 71.1897 39.3169C72.0182 38.0768 72.4615 36.6194 72.464 35.128V30.333C72.4624 28.6613 71.7976 27.0585 70.6155 25.8765C69.4335 24.6944 67.8307 24.0296 66.159 24.028ZM49.974 28.171H57.074V35.128C57.0729 36.0326 56.7131 36.8998 56.0735 37.5395C55.4338 38.1791 54.5666 38.539 53.662 38.54H53.384C52.4797 38.5384 51.613 38.1784 50.9738 37.5388C50.3346 36.8992 49.9751 36.0323 49.974 35.128V28.171ZM38.729 28.171H45.829V35.128C45.8274 36.0328 45.4671 36.9 44.8272 37.5396C44.1872 38.1792 43.3198 38.539 42.415 38.54H42.144C41.2394 38.539 40.3722 38.1791 39.7325 37.5395C39.0929 36.8998 38.7331 36.0326 38.732 35.128L38.729 28.171ZM27.487 30.333C27.4878 29.7599 27.7158 29.2104 28.1211 28.8051C28.5264 28.3998 29.0758 28.1718 29.649 28.171H34.589V35.128C34.5874 36.0328 34.2269 36.9 33.5867 37.5393C32.9465 38.1786 32.0788 38.5378 31.174 38.538H30.899C29.9947 38.537 29.1278 38.1774 28.4882 37.5382C27.8486 36.899 27.4886 36.0323 27.487 35.128V30.333ZM61.393 68.343H34.415C33.813 68.3428 33.2358 68.1035 32.8102 67.6779C32.3845 67.2522 32.1453 66.675 32.145 66.073V42.583C33.8704 42.3646 35.4665 41.5541 36.661 40.29C37.3624 41.0428 38.2111 41.6434 39.1543 42.0545C40.0975 42.4656 41.1151 42.6785 42.144 42.68H42.422C43.4512 42.6785 44.4691 42.4656 45.4126 42.0545C46.3562 41.6434 47.2052 41.0428 47.907 40.29C48.6083 41.0429 49.4569 41.6436 50.4002 42.0548C51.3434 42.4659 52.3611 42.6787 53.39 42.68H53.668C54.6967 42.6782 55.714 42.4653 56.6571 42.0546C57.6002 41.6438 58.449 41.0439 59.151 40.292C60.3457 41.5555 61.9418 42.3653 63.667 42.583V66.072C63.6662 66.6742 63.4265 67.2514 63.0005 67.677C62.5746 68.1026 61.9971 68.3418 61.395 68.342M68.321 35.128C68.3205 36.0323 67.9612 36.8993 67.3221 37.539C66.683 38.1787 65.8162 38.5387 64.912 38.54H64.632C63.7276 38.5387 62.8606 38.1788 62.2212 37.5391C61.5817 36.8995 61.222 36.0324 61.221 35.128V28.171H66.159C66.7321 28.1718 67.2816 28.3998 67.6869 28.8051C68.0922 29.2104 68.3202 29.7599 68.321 30.333V35.128Z" fill="black"/>
</g>
</g>
<defs>
<clipPath id="clip0_311_2">
<rect width="72.464" height="72.485" fill="white"/>
</clipPath>
</defs>
</svg>
