<svg width="71" height="58" viewBox="0 0 71 58" fill="none" xmlns="http://www.w3.org/2000/svg">
<path d="M32.352 47.983H17.824C7.994 47.968 0 40.228 0 30.728C0.0693383 26.3782 1.7572 22.2103 4.73412 19.0379C7.71104 15.8655 11.7633 13.9164 16.1 13.571C17.1598 10.5557 18.9261 7.8379 21.2513 5.64495C23.5764 3.45201 26.3929 1.84764 29.465 0.966002C32.8963 -0.0817227 36.5292 -0.28868 40.0573 0.362594C43.5853 1.01387 46.9049 2.50426 49.736 4.708C52.0755 6.52303 53.942 8.87633 55.1766 11.5677C56.4112 14.259 56.9774 17.2088 56.827 20.166H57.561C60.1951 20.1754 62.7721 20.9339 64.9913 22.353C67.2105 23.772 68.9802 25.793 70.094 28.18C70.2182 28.4471 70.2886 28.7361 70.3012 29.0304C70.3138 29.3247 70.2682 29.6186 70.1672 29.8953C70.0661 30.1721 69.9116 30.4262 69.7124 30.6432C69.5131 30.8601 69.2731 31.0358 69.006 31.16C68.7389 31.2842 68.4499 31.3546 68.1556 31.3672C67.8613 31.3797 67.5674 31.3342 67.2907 31.2332C67.0139 31.1321 66.7598 30.9776 66.5428 30.7784C66.3259 30.5791 66.1502 30.3391 66.026 30.072C65.2734 28.4597 64.0781 27.0945 62.5794 26.1354C61.0807 25.1763 59.3403 24.6629 57.561 24.655H54.253C53.917 24.655 53.5852 24.5795 53.2822 24.4343C52.9792 24.289 52.7127 24.0776 52.5022 23.8156C52.2918 23.5536 52.1428 23.2477 52.0663 22.9205C51.9897 22.5933 51.9876 22.2531 52.06 21.925C52.5828 19.3881 52.3787 16.7552 51.4711 14.3292C50.5636 11.9033 48.9895 9.78285 46.93 8.212C44.6711 6.45984 42.0236 5.27707 39.2113 4.76362C36.399 4.25016 33.5043 4.4211 30.772 5.262C28.1719 5.97891 25.8075 7.3704 23.9184 9.29549C22.0293 11.2206 20.6827 13.6108 20.015 16.224C19.9038 16.7221 19.6261 17.1674 19.2278 17.4864C18.8295 17.8055 18.3343 17.9792 17.824 17.979C10.472 17.979 4.49 23.699 4.49 30.728C4.49 37.757 10.475 43.483 17.829 43.494H32.352C32.9474 43.494 33.5184 43.7305 33.9395 44.1515C34.3605 44.5726 34.597 45.1436 34.597 45.739C34.597 46.3344 34.3605 46.9054 33.9395 47.3265C33.5184 47.7475 32.9474 47.983 32.352 47.983Z" fill="black"/>
<path d="M52.4229 58.007C51.8276 58.0067 51.2568 57.77 50.8359 57.349L44.1459 50.657C43.9375 50.4486 43.7722 50.2012 43.6594 49.9289C43.5466 49.6566 43.4885 49.3647 43.4885 49.07C43.4885 48.7753 43.5466 48.4834 43.6594 48.2111C43.7722 47.9388 43.9375 47.6914 44.1459 47.483C44.3543 47.2746 44.6017 47.1093 44.874 46.9965C45.1463 46.8837 45.4382 46.8257 45.7329 46.8257C46.0276 46.8257 46.3195 46.8837 46.5918 46.9965C46.8641 47.1093 47.1115 47.2746 47.3199 47.483L52.4199 52.583L64.2199 40.789C64.4283 40.5806 64.6757 40.4153 64.948 40.3025C65.2203 40.1897 65.5121 40.1317 65.8069 40.1317C66.1016 40.1317 66.3935 40.1897 66.6658 40.3025C66.9381 40.4153 67.1855 40.5806 67.3939 40.789C67.6023 40.9974 67.7676 41.2448 67.8804 41.5171C67.9932 41.7894 68.0512 42.0813 68.0512 42.376C68.0512 42.6707 67.9932 42.9626 67.8804 43.2349C67.7676 43.5072 67.6023 43.7546 67.3939 43.963L54.0099 57.349C53.8017 57.5578 53.5543 57.7234 53.282 57.8363C53.0097 57.9492 52.7177 58.0072 52.4229 58.007Z" fill="black"/>
</svg>
