<svg width="713" height="222" viewBox="0 0 713 222" fill="none" xmlns="http://www.w3.org/2000/svg">
<path d="M48.71 155.634C39.1825 155.634 30.7818 153.567 23.5079 149.425C16.2341 145.291 10.4989 139.525 6.30245 132.126C2.09823 124.728 0 116.265 0 106.738C0 97.2103 2.09823 88.7474 6.30245 81.3492C10.4989 73.951 16.2341 68.1848 23.5079 64.0505C30.774 59.9162 39.1825 57.8413 48.71 57.8413C60.6232 57.8413 70.6481 60.942 78.8001 67.1512C86.9521 73.3604 92.1511 81.9165 94.4125 92.8195H69.0239C67.7728 88.3045 65.2937 84.7686 61.5946 82.1963C57.8955 79.6318 53.5359 78.3418 48.5235 78.3418C41.8791 78.3418 36.2372 80.8519 31.5978 85.8643C26.9583 90.8767 24.6425 97.8398 24.6425 106.738C24.6425 115.636 26.9583 122.599 31.5978 127.611C36.2372 132.631 41.8791 135.134 48.5235 135.134C53.5359 135.134 57.8955 133.883 61.5946 131.373C65.2937 128.87 67.765 125.295 69.0239 120.656H94.4125C92.1588 131.186 86.9521 139.649 78.8001 146.045C70.6481 152.44 60.6232 155.634 48.71 155.634Z" fill="#333333"/>
<path d="M155.906 155.634C146.876 155.634 138.763 153.567 131.551 149.425C124.34 145.291 118.636 139.548 114.439 132.22C110.235 124.884 108.137 116.39 108.137 106.738C108.137 97.0859 110.266 88.592 114.532 81.256C118.791 73.92 124.526 68.1848 131.738 64.0505C138.95 59.9162 147.063 57.8413 156.093 57.8413C165.123 57.8413 173.05 59.9085 180.261 64.0505C187.473 68.1848 193.177 73.9277 197.374 81.256C201.57 88.592 203.676 97.0859 203.676 106.738C203.676 116.39 201.578 124.884 197.374 132.22C193.169 139.556 187.434 145.291 180.168 149.425C172.894 153.559 164.812 155.634 155.906 155.634ZM155.906 134.761C162.178 134.761 167.625 132.406 172.265 127.705C176.904 123.003 179.22 116.017 179.22 106.738C179.22 97.459 176.896 90.4726 172.265 85.7711C167.625 81.0695 162.232 78.7148 156.093 78.7148C149.954 78.7148 144.211 81.0695 139.633 85.7711C135.056 90.4726 132.771 97.4667 132.771 106.738C132.771 116.009 135.056 123.003 139.633 127.705C144.211 132.406 149.627 134.761 155.899 134.761H155.906Z" fill="#333333"/>
<path d="M220.408 153.381V60.1033H241.662L243.543 75.9021C246.426 70.3846 250.599 66.0016 256.047 62.7377C261.502 59.4816 267.921 57.8496 275.32 57.8496C286.852 57.8496 295.82 61.4865 302.216 68.7604C308.611 76.0343 311.805 86.6886 311.805 100.731V153.389H287.73V102.985C287.73 94.9649 286.098 88.8179 282.842 84.5515C279.578 80.2929 274.504 78.1558 267.611 78.1558C260.717 78.1558 255.293 80.5416 250.965 85.3053C246.636 90.0691 244.476 96.7135 244.476 105.238V153.381H220.4H220.408Z" fill="#333333"/>
<path d="M330.042 153.381V60.1033H351.296L353.177 75.9021C356.06 70.3846 360.233 66.0016 365.681 62.7377C371.136 59.4816 377.555 57.8496 384.953 57.8496C396.486 57.8496 405.454 61.4865 411.85 68.7604C418.245 76.0343 421.439 86.6886 421.439 100.731V153.389H397.364V102.985C397.364 94.9649 395.732 88.8179 392.476 84.5515C389.212 80.2929 384.137 78.1558 377.244 78.1558C370.351 78.1558 364.927 80.5416 360.598 85.3053C356.27 90.0691 354.109 96.7135 354.109 105.238V153.381H330.034H330.042Z" fill="#333333"/>
<path d="M485.01 155.634C475.607 155.634 467.268 153.629 459.994 149.619C452.72 145.609 447.016 139.968 442.882 132.694C438.748 125.428 436.673 117.019 436.673 107.492C436.673 97.9641 438.709 89.2526 442.781 81.73C446.853 74.2075 452.495 68.348 459.707 64.1438C466.918 59.9473 475.412 57.8413 485.189 57.8413C494.335 57.8413 502.425 59.8463 509.45 63.8562C516.468 67.8739 521.954 73.3527 525.902 80.3157C529.85 87.2709 531.824 95.0188 531.824 103.544C531.824 104.927 531.793 106.365 531.73 107.872C531.668 109.38 531.567 110.95 531.451 112.574H460.554C461.051 119.848 463.592 125.552 468.17 129.686C472.747 133.82 478.295 135.895 484.816 135.895C489.704 135.895 493.815 134.8 497.133 132.6C500.451 130.409 502.93 127.557 504.562 124.044H529.01C527.254 129.935 524.34 135.297 520.268 140.123C516.196 144.949 511.176 148.741 505.223 151.5C499.262 154.259 492.532 155.634 485.002 155.634H485.01ZM485.196 77.4015C479.306 77.4015 474.099 79.0645 469.584 82.3828C465.069 85.7089 462.186 90.7524 460.935 97.5211H507.383C507.01 91.3819 504.749 86.4938 500.614 82.8491C496.48 79.2121 491.336 77.3937 485.196 77.3937V77.4015Z" fill="#D94D14"/>
<path d="M593.138 155.634C583.61 155.634 575.21 153.567 567.936 149.425C560.662 145.291 554.927 139.525 550.73 132.126C546.526 124.728 544.428 116.265 544.428 106.738C544.428 97.2103 546.526 88.7474 550.73 81.3492C554.927 73.951 560.662 68.1848 567.936 64.0505C575.202 59.9162 583.61 57.8413 593.138 57.8413C605.051 57.8413 615.076 60.942 623.228 67.1512C631.38 73.3604 636.579 81.9165 638.84 92.8195H613.452C612.201 88.3045 609.721 84.7686 606.022 82.1963C602.323 79.6318 597.964 78.3418 592.951 78.3418C586.307 78.3418 580.665 80.8519 576.025 85.8643C571.386 90.8767 569.07 97.8398 569.07 106.738C569.07 115.636 571.386 122.599 576.025 127.611C580.665 132.631 586.307 135.134 592.951 135.134C597.964 135.134 602.323 133.883 606.022 131.373C609.721 128.87 612.193 125.295 613.452 120.656H638.84C636.587 131.186 631.38 139.649 623.228 146.045C615.076 152.44 605.051 155.634 593.138 155.634Z" fill="#333333"/>
<path d="M695.827 153.381C686.051 153.381 678.21 151.003 672.319 146.231C666.429 141.468 663.483 133.005 663.483 120.843V80.2226H647.498V60.1029H663.483L666.304 35.0874H687.559V60.1029H712.761V80.2226H687.559V121.029C687.559 125.544 688.53 128.645 690.473 130.339C692.416 132.033 695.765 132.88 700.537 132.88H712.193V153.381H695.835H695.827Z" fill="#333333"/>
<path d="M348.803 212.007V176.477H356.193V189.836H356.419C356.745 189.121 357.211 188.39 357.833 187.644C358.455 186.898 359.263 186.277 360.265 185.771C361.268 185.266 362.511 185.018 364.003 185.018C365.946 185.018 367.741 185.523 369.381 186.533C371.021 187.543 372.334 189.066 373.321 191.095C374.3 193.123 374.797 195.664 374.797 198.718C374.797 201.772 374.323 204.197 373.368 206.241C372.412 208.285 371.122 209.823 369.482 210.872C367.842 211.922 366.016 212.442 363.988 212.442C362.558 212.442 361.338 212.209 360.335 211.735C359.333 211.261 358.517 210.663 357.88 209.94C357.242 209.217 356.76 208.487 356.426 207.748H356.092V212.015H348.811L348.803 212.007ZM356.038 198.687C356.038 200.273 356.255 201.656 356.698 202.837C357.141 204.018 357.771 204.935 358.602 205.588C359.434 206.241 360.444 206.567 361.641 206.567C362.838 206.567 363.863 206.233 364.695 205.565C365.526 204.896 366.164 203.972 366.599 202.79C367.034 201.601 367.252 200.241 367.252 198.687C367.252 197.133 367.034 195.796 366.607 194.631C366.179 193.465 365.55 192.548 364.718 191.887C363.887 191.227 362.861 190.9 361.649 190.9C360.436 190.9 359.426 191.219 358.602 191.856C357.778 192.494 357.141 193.395 356.706 194.561C356.263 195.726 356.046 197.102 356.046 198.687H356.038Z" fill="#333333"/>
<path d="M383.378 222C382.437 222 381.567 221.93 380.751 221.783C379.935 221.635 379.259 221.456 378.73 221.239L380.393 215.721C381.264 215.985 382.041 216.133 382.74 216.156C383.44 216.18 384.046 216.016 384.559 215.674C385.072 215.325 385.491 214.734 385.818 213.903L386.253 212.776L376.694 185.367H384.466L389.983 204.935H390.263L395.835 185.367H403.66L393.301 214.89C392.804 216.319 392.128 217.578 391.281 218.643C390.434 219.708 389.354 220.539 388.064 221.122C386.766 221.705 385.204 222 383.378 222Z" fill="#333333"/>
<path d="M555.184 43.2004C552.433 45.3764 548.384 44.7625 546.115 42.0892C516.623 7.35183 464.431 2.91446 429.5 32.1731C426.811 34.4267 422.716 34.349 420.376 31.7379C417.944 29.0257 418.247 24.8681 421.014 22.5368C461.432 -11.54 522.032 -6.38768 556.116 34.0304C558.448 36.7892 558.043 40.9468 555.191 43.2082L555.184 43.2004Z" fill="#D94D14"/>
<path d="M532.546 59.3717C529.857 61.6409 525.808 61.128 523.438 58.5247C503.691 36.874 470.073 35.1333 448.197 54.6313C445.57 56.9704 441.49 57.0637 439.05 54.5302C436.61 51.9968 436.68 47.7227 439.369 45.298C466.568 20.7721 508.657 22.948 533.183 50.1473C535.607 52.8361 535.335 57.0093 532.546 59.3562V59.3717Z" fill="#D94D14"/>
<path d="M433.43 212.326V188.896H429.335V182.454H433.43V178.957C433.43 175.343 434.34 172.771 436.174 171.248C438 169.724 440.479 168.955 443.611 168.955H446.921V175.522H444.815C443.486 175.522 442.546 175.786 441.987 176.307C441.427 176.827 441.139 177.713 441.139 178.957V182.454H447.582V188.896H441.139V212.326H433.43ZM453.667 212.326V168.955H461.376V212.326H453.667Z" fill="#333333"/>
<path d="M482.28 213.048C479.265 213.048 476.599 212.403 474.268 211.121C471.937 209.838 470.11 208.028 468.789 205.696C467.46 203.365 466.8 200.676 466.8 197.622C466.8 194.568 467.453 191.778 468.758 189.369C470.064 186.96 471.867 185.079 474.182 183.735C476.491 182.39 479.21 181.714 482.342 181.714C485.272 181.714 487.86 182.359 490.113 183.642C492.359 184.924 494.116 186.68 495.382 188.91C496.649 191.141 497.279 193.62 497.279 196.348C497.279 196.791 497.271 197.249 497.247 197.731C497.224 198.213 497.193 198.718 497.154 199.238H474.447C474.61 201.57 475.418 203.396 476.887 204.717C478.356 206.046 480.127 206.707 482.218 206.707C483.788 206.707 485.101 206.357 486.166 205.65C487.23 204.95 488.023 204.033 488.544 202.906H496.377C495.818 204.795 494.877 206.512 493.579 208.059C492.274 209.605 490.665 210.818 488.761 211.703C486.85 212.589 484.697 213.032 482.288 213.032L482.28 213.048ZM482.342 187.993C480.454 187.993 478.791 188.53 477.345 189.587C475.9 190.651 474.975 192.268 474.571 194.436H489.453C489.329 192.47 488.606 190.9 487.285 189.734C485.956 188.569 484.316 187.986 482.342 187.986V187.993Z" fill="#333333"/>
<path d="M497.403 212.325L508.244 197.388L497.403 182.452H505.656L513.249 193.052L520.779 182.452H529.094L518.191 197.388L529.094 212.325H520.779L513.249 201.725L505.656 212.325H497.403Z" fill="#333333"/>
<path d="M544.708 213.048C541.692 213.048 539.027 212.411 536.696 211.129C534.364 209.847 532.538 208.044 531.209 205.712C529.88 203.389 529.22 200.692 529.212 197.646C529.212 194.553 529.857 191.802 531.162 189.393C532.468 186.984 534.271 185.103 536.579 183.759C538.887 182.414 541.607 181.738 544.739 181.73C547.669 181.73 550.264 182.368 552.51 183.65C554.764 184.932 556.52 186.689 557.787 188.919C559.053 191.149 559.691 193.628 559.691 196.356C559.691 196.799 559.683 197.257 559.66 197.739C559.636 198.221 559.613 198.726 559.574 199.247L536.867 199.27C537.03 201.601 537.846 203.428 539.314 204.749C540.783 206.07 542.563 206.73 544.646 206.73C546.215 206.73 547.529 206.373 548.593 205.674C549.658 204.974 550.451 204.057 550.971 202.93H558.805C558.245 204.811 557.313 206.528 556.007 208.075C554.701 209.621 553.101 210.841 551.189 211.727C549.285 212.613 547.125 213.056 544.715 213.056L544.708 213.048ZM544.739 187.994C542.85 187.994 541.187 188.53 539.742 189.595C538.296 190.66 537.372 192.276 536.975 194.444L551.857 194.429C551.733 192.463 551.01 190.893 549.681 189.735C548.352 188.569 546.705 187.994 544.739 187.994Z" fill="#D94D14"/>
<path d="M577.036 213.048C574.386 213.048 572.055 212.613 570.05 211.751C568.045 210.888 566.436 209.691 565.232 208.168C564.027 206.645 563.304 204.873 563.063 202.868H570.835C571.076 204.034 571.728 205.029 572.793 205.852C573.858 206.676 575.233 207.088 576.92 207.088C578.606 207.088 579.842 206.746 580.626 206.062C581.411 205.378 581.8 204.593 581.8 203.715C581.8 202.433 581.24 201.555 580.114 201.096C578.987 200.638 577.425 200.187 575.412 199.744C574.13 199.464 572.824 199.122 571.495 198.718C570.166 198.314 568.954 197.809 567.851 197.18C566.747 196.558 565.853 195.758 565.169 194.771C564.486 193.784 564.144 192.571 564.144 191.126C564.144 188.476 565.201 186.246 567.307 184.443C569.413 182.632 572.373 181.73 576.189 181.73C579.725 181.73 582.546 182.554 584.652 184.202C586.758 185.849 588.017 188.118 588.413 191.009H581.124C580.681 188.802 579.018 187.699 576.127 187.699C574.681 187.699 573.57 187.979 572.785 188.546C572 189.105 571.612 189.813 571.612 190.652C571.612 191.491 572.195 192.237 573.36 192.758C574.526 193.278 576.073 193.76 578 194.203C580.09 194.685 582.002 195.221 583.75 195.796C585.499 196.379 586.89 197.242 587.939 198.384C588.98 199.527 589.509 201.166 589.509 203.296C589.548 205.145 589.066 206.808 588.063 208.292C587.061 209.777 585.616 210.942 583.727 211.79C581.839 212.637 579.608 213.056 577.044 213.056L577.036 213.048Z" fill="#333333"/>
<path d="M609.326 213.048C606.311 213.048 603.645 212.403 601.314 211.121C598.983 209.838 597.156 208.028 595.835 205.696C594.506 203.365 593.846 200.676 593.846 197.622C593.846 194.568 594.499 191.778 595.804 189.369C597.11 186.96 598.913 185.079 601.228 183.735C603.536 182.39 606.256 181.714 609.388 181.714C612.318 181.714 614.906 182.359 617.159 183.642C619.405 184.924 621.162 186.68 622.428 188.91C623.695 191.141 624.324 193.62 624.324 196.348C624.324 196.791 624.317 197.249 624.293 197.731C624.27 198.213 624.239 198.718 624.2 199.238H601.493C601.656 201.57 602.464 203.396 603.933 204.717C605.402 206.046 607.173 206.707 609.264 206.707C610.834 206.707 612.147 206.357 613.212 205.65C614.276 204.95 615.069 204.033 615.59 202.906H623.423C622.863 204.795 621.923 206.512 620.625 208.059C619.32 209.605 617.711 210.818 615.807 211.703C613.895 212.589 611.743 213.032 609.334 213.032L609.326 213.048ZM609.388 187.993C607.5 187.993 605.837 188.53 604.391 189.587C602.946 190.651 602.021 192.268 601.617 194.436H616.499C616.374 192.47 615.652 190.9 614.331 189.734C613.002 188.569 611.362 187.986 609.388 187.986V187.993Z" fill="#333333"/>
<path d="M629.319 212.325V182.445H636.189L636.912 188.048C638 186.121 639.469 184.582 641.341 183.44C643.207 182.297 645.406 181.722 647.939 181.722V189.851H645.771C644.085 189.851 642.577 190.115 641.256 190.636C639.927 191.156 638.893 192.058 638.155 193.348C637.409 194.63 637.044 196.418 637.044 198.71V212.325H629.335H629.319Z" fill="#333333"/>
<path d="M660.771 212.326L649.806 182.445H657.88L665.472 205.036L673.065 182.445H681.139L670.112 212.326H660.771Z" fill="#333333"/>
<path d="M697.574 213.048C694.559 213.048 691.893 212.403 689.562 211.121C687.231 209.838 685.404 208.028 684.083 205.696C682.754 203.365 682.094 200.676 682.094 197.622C682.094 194.568 682.747 191.778 684.052 189.369C685.358 186.96 687.161 185.079 689.476 183.735C691.784 182.39 694.504 181.714 697.636 181.714C700.566 181.714 703.154 182.359 705.407 183.642C707.653 184.924 709.41 186.68 710.676 188.91C711.943 191.141 712.572 193.62 712.572 196.348C712.572 196.791 712.565 197.249 712.541 197.731C712.518 198.213 712.487 198.718 712.448 199.238H689.741C689.904 201.57 690.712 203.396 692.181 204.717C693.65 206.046 695.421 206.707 697.512 206.707C699.082 206.707 700.395 206.357 701.46 205.65C702.524 204.95 703.317 204.033 703.838 202.906H711.671C711.112 204.795 710.171 206.512 708.873 208.059C707.568 209.605 705.959 210.818 704.055 211.703C702.143 212.589 699.991 213.032 697.582 213.032L697.574 213.048ZM697.636 187.993C695.748 187.993 694.085 188.53 692.639 189.587C691.194 190.651 690.269 192.268 689.865 194.436H704.747C704.623 192.47 703.9 190.9 702.579 189.734C701.25 188.569 699.61 187.986 697.636 187.986V187.993Z" fill="#333333"/>
</svg>
