<?xml version="1.0" encoding="UTF-8"?>
<svg id="Layer_1" data-name="Layer 1" xmlns="http://www.w3.org/2000/svg" viewBox="0 0 141.73 141.73">
  <defs>
    <style>
      .cls-1 {
        fill: #d34927;
      }

      .cls-2 {
        fill: #fff;
      }
    </style>
  </defs>
  <circle class="cls-1" cx="71" cy="71" r="70.02"/>
  <path class="cls-2" d="M103.58,79.35c-4.44-.2-9-.88-13.39-.88h0c-.85,0-1.33.98-.8,1.65,3.82,4.85,7.89,9.75,12.71,13.53,3.74,2.8,7.71,5.14,15.88,5.14h0c.53,0,.86.56.61,1.03-5.92,10.85-12.42,21.16-23.96,21.16-5.84,0-13.08-3.27-16.58-8.41-3.27-4.91-4.67-13.55-6.07-19.39-.29-1.01-.58-2.02-.92-2.98-.28-.77-1.3-.94-1.8-.29-8.43,11.18-9.62,19.17-9.66,32.22,0,.39-.32.71-.71.7-16.03-.21-29.19-7.44-29.19-21.71,0-13.39,11.35-17.7,20.66-23.6.73-.46.59-1.57-.23-1.84-5.88-1.92-11.8-3.05-18.09-3.05-4.69,0-9.16.64-16.07,3.55-.46.2-.98-.15-.97-.65.23-14.21,5.07-34.43,21.01-34.43,12.32,0,16.56,9.12,24.62,15.45.64.5,1.58.11,1.65-.7.06-.65.12-1.3.12-1.9,0-10.24-3.55-23.8-13.02-33.78-.35-.37-.19-.97.29-1.13,7.33-2.39,14.34-4.09,18.8-4.09,10.74,0,22.65,5.37,22.65,18.92,0,7.72-4.14,15.06-6.99,22.17-.32.79.43,1.6,1.25,1.35,9.68-2.98,21.5-12.02,27.19-22.56.24-.44.87-.48,1.17-.08,5.08,6.91,9.14,13.42,10.63,19.97,3.23,14.15-6.3,25.27-20.79,24.62Z"/>
</svg>