<?xml version="1.0" encoding="UTF-8"?>
<svg id="Layer_1" data-name="Layer 1" xmlns="http://www.w3.org/2000/svg" viewBox="0 0 473.49 473.49">
  <defs>
    <style>
      .cls-1 {
        fill: #d8dee8;
      }

      .cls-2 {
        fill: none;
        stroke: #d8dee8;
        stroke-miterlimit: 10;
        stroke-width: 12px;
      }
    </style>
  </defs>
  <path class="cls-1" d="M330.3,265.89c-12.37-.55-25.07-2.45-37.3-2.45h0c-2.38,0-3.71,2.74-2.24,4.61,10.65,13.51,21.99,27.17,35.42,37.69,10.41,7.81,21.47,14.31,44.25,14.31h0c1.47,0,2.4,1.57,1.7,2.86-16.49,30.22-34.6,58.97-66.77,58.97-16.27,0-36.44-9.11-46.2-23.43-9.11-13.67-13.01-37.75-16.92-54.01-.8-2.81-1.61-5.63-2.57-8.29-.78-2.16-3.63-2.63-5.01-.8-23.49,31.16-26.8,53.42-26.91,89.76,0,1.08-.89,1.97-1.97,1.96-44.67-.57-81.33-20.74-81.33-60.5,0-37.31,31.61-49.32,57.57-65.76,2.03-1.28,1.64-4.37-.65-5.12-16.38-5.36-32.87-8.51-50.41-8.51-13.06,0-25.52,1.78-44.78,9.89-1.29.54-2.72-.42-2.7-1.82.64-39.61,14.12-95.92,58.54-95.92,34.33,0,46.13,25.4,68.6,43.04,1.78,1.4,4.4.29,4.6-1.96.16-1.82.33-3.64.33-5.29,0-28.52-9.88-66.32-36.27-94.12-.97-1.02-.53-2.72.81-3.15,20.42-6.66,39.95-11.4,52.37-11.4,29.94,0,63.12,14.97,63.12,52.71,0,21.52-11.54,41.95-19.47,61.79-.88,2.21,1.2,4.47,3.47,3.77,26.97-8.31,59.9-33.5,75.76-62.85.67-1.24,2.41-1.35,3.25-.21,14.15,19.25,25.46,37.41,29.62,55.64,9,39.42-17.54,70.42-57.94,68.61Z"/>
  <circle class="cls-2" cx="236.75" cy="236.75" r="230.75"/>
</svg>