<svg width="195" height="64" viewBox="0 0 195 64" fill="none" xmlns="http://www.w3.org/2000/svg">
<path d="M184.067 52.7591C178.636 58.4526 171.393 61.573 163.739 61.573H30.4667C22.8037 61.573 15.5654 58.4526 10.1169 52.7591C4.699 47.0742 1.70996 39.512 1.70996 31.4553C1.70996 14.8602 14.6156 1.35059 30.4667 1.35059H163.739C171.393 1.35059 178.636 4.47521 184.067 10.1776C189.484 15.8493 192.469 23.429 192.469 31.4553C192.469 39.512 189.484 47.0742 184.067 52.7591Z" fill="white"/>
<path d="M31.6016 0.5H162.707C171.021 0.500015 178.824 3.72121 184.694 9.5918C190.57 15.467 193.791 23.2612 193.791 31.584C193.791 39.8808 190.57 47.7004 184.695 53.5576L184.694 53.5586C178.823 59.4385 171.02 62.6806 162.707 62.6807H31.6016C23.2927 62.6807 15.494 59.4384 9.62695 53.5586L9.62598 53.5576L9.08105 53.002C3.53499 47.2102 0.500052 39.6208 0.5 31.584C0.5 14.4212 14.4593 0.5 31.6016 0.5ZM31.6016 2.7998C15.7199 2.7998 2.7998 15.6927 2.7998 31.584C2.79986 39.2793 5.80271 46.5043 11.2393 51.9541L11.2402 51.9551C16.6813 57.3828 23.9065 60.3857 31.6016 60.3857H162.707C170.372 60.3857 177.619 57.3829 183.064 51.9551L183.065 51.9541C188.488 46.5051 191.513 39.2802 191.513 31.584C191.513 23.8877 188.488 16.6629 183.065 11.2139L183.064 11.2129L182.549 10.71C177.165 5.59187 170.131 2.79982 162.707 2.7998H31.6016Z" fill="white" stroke="#EE2824"/>
<path d="M162.706 6.11255H31.5959C17.5435 6.11255 6.15625 17.5129 6.15625 31.5783C6.15625 45.6351 17.5435 57.0442 31.5959 57.0442H162.706C176.763 57.0442 188.145 45.6351 188.145 31.5783C188.145 17.5129 176.763 6.11255 162.706 6.11255Z" fill="white"/>
<path fill-rule="evenodd" clip-rule="evenodd" d="M191.648 62.596C193.468 62.596 195 61.1999 195 59.2787C195 57.3838 193.468 55.9966 191.648 55.9966C189.823 55.9966 188.282 57.3838 188.282 59.2787C188.282 61.1999 189.823 62.596 191.648 62.596ZM188.956 59.2787C188.956 57.7295 190.147 56.5173 191.648 56.5173C193.153 56.5173 194.335 57.7293 194.335 59.2787C194.335 60.8761 193.152 62.0489 191.648 62.0489C190.147 62.0489 188.956 60.8766 188.956 59.2787ZM190.939 59.5541H191.604L192.61 61.1996H193.262L192.203 59.5323C192.75 59.4331 193.179 59.1427 193.179 58.4691C193.179 57.7297 192.732 57.3837 191.827 57.3837H190.374V61.1998H190.938L190.939 59.5541ZM190.939 59.0417V57.8607H191.749C192.138 57.8607 192.567 57.9873 192.567 58.4339C192.567 59.0331 192.138 59.0417 191.648 59.0417H190.939Z" fill="white"/>
<path d="M26.4551 17.4492H40.8795L40.4987 30.4294H49.2819L48.7349 17.6241H62.7828L61.483 46.3417H49.6582L49.2825 36.3286H40.3372L40.1661 46.1709H27.9255L26.4551 17.4492Z" fill="#EE2824"/>
<path d="M81.1064 17.8044H117.049L116.673 25.7211H95.1724V30.6139H110.599L110.41 36.3293L94.9752 36.317V41.2096H115.946L115.754 46.5313H82.4154L81.1064 17.8044Z" fill="#EE2824"/>
<path d="M67.3057 30.8132H76.1546V36.148H67.4808L67.3057 30.8132Z" fill="#EE2824"/>
<path d="M121.287 36.3296H129.777V30.8113H121.287V36.3296Z" fill="#EE2824"/>
<path d="M136.116 46.7184L134.82 17.8042H161.949C167.249 17.8042 171.284 20.9594 171.284 26.0622C171.284 31.6901 166.802 33.6071 165.214 33.7165L165.239 33.9434C167.895 34.5302 169.523 35.9084 169.523 39.4226C169.523 46.3416 162.967 46.7442 159.475 46.7442L136.116 46.7184Z" fill="#EE2824"/>
<path d="M149.021 41.5001V36.2134H153.944C155.423 36.2134 156.885 37.0582 156.885 38.7955C156.885 40.476 155.02 41.5001 153.012 41.5001H149.021Z" fill="white"/>
<path d="M149.121 31.3093V25.2305H154.027C155.996 25.2305 157.948 26.347 157.948 28.3683C157.948 30.0532 155.659 31.3575 153.629 31.3093C151.922 31.2721 149.121 31.3093 149.121 31.3093Z" fill="white"/>
</svg>
