<svg width="187" height="164" viewBox="0 0 187 164" fill="none" xmlns="http://www.w3.org/2000/svg">
<path d="M131.15 109.131V98.9624H174.937V109.131H159.228V150.768H146.884V109.131H131.15Z" fill="#333333"/>
<path d="M76.6797 150.768V98.9624H112.802V109.131H89.201V119.755H110.955V129.949H89.201V140.599H112.802V150.768H76.6797Z" fill="#333333"/>
<path d="M12.2295 150.768V98.9624H24.7508V120.868H25.4337L42.5588 98.9624H57.3061L38.9415 122.082L57.6349 150.768H42.66L29.7593 130.405L24.7508 136.729V150.768H12.2295Z" fill="#333333"/>
<path d="M132.75 64.6953V12.8901H154.15C158.029 12.8901 161.376 13.59 164.192 14.9897C167.025 16.3725 169.209 18.3624 170.744 20.9594C172.278 23.5395 173.046 26.6003 173.046 30.1417C173.046 33.7336 172.262 36.7859 170.693 39.2986C169.125 41.7945 166.899 43.7 164.015 45.0154C161.132 46.3139 157.717 46.9632 153.771 46.9632H140.237V37.0979H151.443C153.332 37.0979 154.909 36.8534 156.174 36.3644C157.455 35.8584 158.425 35.0996 159.083 34.0878C159.74 33.0591 160.069 31.7437 160.069 30.1417C160.069 28.5396 159.74 27.2158 159.083 26.1703C158.425 25.1079 157.455 24.3153 156.174 23.7925C154.892 23.2529 153.315 22.983 151.443 22.983H145.271V64.6953H132.75ZM161.916 41.0187L174.816 64.6953H161.157L148.509 41.0187H161.916Z" fill="#333333"/>
<path d="M89.0011 64.6953H75.5439L93.0231 12.8901H109.693L127.172 64.6953H113.715L101.548 25.9426H101.143L89.0011 64.6953ZM87.2052 44.3071H115.334V53.8182H87.2052V44.3071Z" fill="#333333"/>
<path d="M12.0586 12.8901H27.5647L40.7184 44.9648H41.3255L54.4791 12.8901H69.9853V64.6953H57.7928V32.8736H57.3628L44.9174 64.3665H37.1264L24.681 32.6965H24.251V64.6953H12.0586V12.8901Z" fill="#333333"/>
<rect x="2.5" y="2.5" width="181.698" height="158.828" stroke="black" stroke-width="5"/>
</svg>
