<svg width="60" height="63" viewBox="0 0 60 63" fill="none" xmlns="http://www.w3.org/2000/svg">
<mask id="mask0_210_1040" style="mask-type:luminance" maskUnits="userSpaceOnUse" x="0" y="0" width="60" height="63">
<path d="M59.452 0H0V62.5H59.452V0Z" fill="white"/>
</mask>
<g mask="url(#mask0_210_1040)">
<path d="M29.73 59.449C29.1447 59.449 28.5593 59.4324 27.974 59.399C22.104 59.0534 16.4685 56.9745 11.7802 53.4254C7.0919 49.8763 3.56156 45.0165 1.63575 39.4607C-0.290057 33.9048 -0.524802 27.9027 0.96121 22.2134C2.44722 16.5241 5.58722 11.4034 9.984 7.49902C14.3793 3.59392 19.834 1.08 25.6581 0.275186C31.4823 -0.529627 37.4143 0.410826 42.7039 2.9776C47.9935 5.54438 52.4031 9.62217 55.375 14.6953C58.3469 19.7683 59.7477 25.6088 59.4 31.478C59.3531 32.0791 59.0751 32.6385 58.6244 33.0389C58.1737 33.4393 57.5854 33.6493 56.983 33.625C56.6831 33.6077 56.3896 33.5314 56.1192 33.4005C55.8488 33.2695 55.6069 33.0866 55.4073 32.8621C55.2077 32.6376 55.0543 32.376 54.956 32.0922C54.8576 31.8083 54.8161 31.5079 54.834 31.208C55.1278 26.2416 53.9422 21.2996 51.4272 17.0071C48.9122 12.7145 45.1807 9.26422 40.7047 7.0925C36.2286 4.92079 31.2091 4.12523 26.2809 4.80643C21.3526 5.48764 16.7371 7.61501 13.018 10.9195C9.29892 14.224 6.64331 18.5572 5.38703 23.371C4.13075 28.1849 4.33024 33.2632 5.96027 37.9636C7.5903 42.6641 10.5776 46.7756 14.5445 49.7782C18.5114 52.7807 23.2795 54.5395 28.246 54.832C30.0783 54.9428 31.9172 54.8499 33.729 54.555C34.3279 54.4586 34.9405 54.604 35.4321 54.9593C35.9237 55.3146 36.2541 55.8507 36.3505 56.4495C36.4469 57.0484 36.3015 57.661 35.9462 58.1526C35.5909 58.6443 35.0549 58.9746 34.456 59.071C32.8932 59.3225 31.3129 59.4496 29.73 59.449Z" fill="black"/>
<path d="M51.068 62.499C50.6541 62.4989 50.248 62.3864 49.893 62.1735C49.538 61.9606 49.2475 61.6554 49.0525 61.2903C48.8574 60.9253 48.7651 60.5141 48.7855 60.1007C48.8058 59.6873 48.938 59.2872 49.168 58.943L52.895 53.352H44.972C44.5581 53.3519 44.152 53.2394 43.797 53.0265C43.442 52.8136 43.1515 52.5084 42.9565 52.1433C42.7614 51.7783 42.6691 51.3671 42.6895 50.9537C42.7098 50.5403 42.842 50.1402 43.072 49.796L49.172 40.65C49.5203 40.1748 50.0387 39.8524 50.619 39.75C51.1992 39.6476 51.7966 39.7731 52.2866 40.1004C52.7766 40.4277 53.1214 40.9314 53.2491 41.5067C53.3767 42.0819 53.2775 42.6842 52.972 43.188L49.24 48.779H57.163C57.5769 48.7792 57.9829 48.8917 58.3379 49.1046C58.6929 49.3174 58.9834 49.6227 59.1784 49.9877C59.3735 50.3528 59.4658 50.764 59.4454 51.1774C59.4251 51.5908 59.2929 51.9909 59.063 52.335L52.963 61.481C52.7547 61.7941 52.4722 62.0509 52.1407 62.2285C51.8092 62.4061 51.439 62.499 51.063 62.499M38.874 41.161C38.5736 41.1614 38.2761 41.1024 37.9986 40.9874C37.7211 40.8724 37.4691 40.7037 37.257 40.491L28.111 31.345C27.8977 31.1329 27.7286 30.8806 27.6135 30.6027C27.4983 30.3248 27.4393 30.0268 27.44 29.726V14.482C27.4336 14.1777 27.488 13.8752 27.6001 13.5923C27.7121 13.3093 27.8795 13.0515 28.0925 12.8341C28.3054 12.6166 28.5596 12.4438 28.8402 12.3259C29.1208 12.208 29.4221 12.1472 29.7265 12.1472C30.0308 12.1472 30.3321 12.208 30.6127 12.3259C30.8933 12.4438 31.1475 12.6166 31.3604 12.8341C31.5734 13.0515 31.7408 13.3093 31.8528 13.5923C31.9649 13.8752 32.0193 14.1777 32.013 14.482V28.782L40.489 37.258C40.8074 37.5781 41.0239 37.9852 41.1114 38.4281C41.1988 38.871 41.1532 39.3299 40.9803 39.747C40.8074 40.164 40.5149 40.5205 40.1397 40.7716C39.7645 41.0227 39.3234 41.1572 38.872 41.158" fill="black"/>
</g>
</svg>
