<svg width="403" height="488" viewBox="0 0 403 488" fill="none" xmlns="http://www.w3.org/2000/svg">
<mask id="path-1-inside-1_323_14" fill="white">
<path d="M270.771 126.726C276.781 112.865 293.017 106.346 305.938 114.177C337.481 133.294 363.332 160.806 380.448 193.871C401.777 235.077 408.232 282.381 398.724 327.794C389.215 373.208 364.325 413.949 328.257 443.137C292.189 472.324 247.153 488.17 200.755 487.999C154.357 487.827 109.439 471.648 73.5881 442.194C37.7371 412.74 13.1493 371.816 3.97696 326.333C-5.19533 280.851 1.60997 233.596 23.2436 192.549C40.6034 159.612 66.6579 132.291 98.341 113.409C111.319 105.674 127.507 112.312 133.415 126.218C139.322 140.124 132.64 155.989 120.07 164.371C99.8231 177.871 83.1248 196.279 71.6454 218.06C55.8859 247.961 50.9285 282.385 57.6102 315.518C64.292 348.651 82.2035 378.462 108.32 399.919C134.436 421.375 167.157 433.161 200.957 433.286C234.757 433.411 267.564 421.868 293.839 400.605C320.114 379.343 338.245 349.664 345.172 316.582C352.099 283.499 347.396 249.04 331.859 219.023C320.541 197.158 303.979 178.626 283.833 164.977C271.325 156.502 264.761 140.588 270.771 126.726Z"/>
</mask>
<path d="M270.771 126.726C276.781 112.865 293.017 106.346 305.938 114.177C337.481 133.294 363.332 160.806 380.448 193.871C401.777 235.077 408.232 282.381 398.724 327.794C389.215 373.208 364.325 413.949 328.257 443.137C292.189 472.324 247.153 488.17 200.755 487.999C154.357 487.827 109.439 471.648 73.5881 442.194C37.7371 412.74 13.1493 371.816 3.97696 326.333C-5.19533 280.851 1.60997 233.596 23.2436 192.549C40.6034 159.612 66.6579 132.291 98.341 113.409C111.319 105.674 127.507 112.312 133.415 126.218C139.322 140.124 132.64 155.989 120.07 164.371C99.8231 177.871 83.1248 196.279 71.6454 218.06C55.8859 247.961 50.9285 282.385 57.6102 315.518C64.292 348.651 82.2035 378.462 108.32 399.919C134.436 421.375 167.157 433.161 200.957 433.286C234.757 433.411 267.564 421.868 293.839 400.605C320.114 379.343 338.245 349.664 345.172 316.582C352.099 283.499 347.396 249.04 331.859 219.023C320.541 197.158 303.979 178.626 283.833 164.977C271.325 156.502 264.761 140.588 270.771 126.726Z" stroke="white" stroke-width="88" mask="url(#path-1-inside-1_323_14)"/>
<line x1="202" y1="24" x2="202.001" y2="197" stroke="white" stroke-width="48" stroke-linecap="round"/>
</svg>
