<svg width="231" height="234" viewBox="0 0 231 234" fill="none" xmlns="http://www.w3.org/2000/svg">
<path d="M89.2339 173L42.7719 173C42.4605 173 42.1669 173.145 41.9777 173.392L3.71424 223.392C3.21072 224.05 3.67986 225 4.50838 225H226.366C227.211 225 227.675 224.017 227.138 223.365L185.987 173.365C185.797 173.134 185.513 173 185.214 173L138.734 173" stroke="#333333" stroke-width="7" stroke-linecap="round"/>
<path d="M113.734 4.5C81.9092 4.50013 63.6398 29.3413 53.6558 51.627C45.9299 68.8719 48.9593 88.7829 57.6206 106.748L106.346 207.814C109.406 214.161 118.415 214.243 121.59 207.954L171.372 109.354C181.241 89.8058 184.332 67.7152 174.799 49.2695C163.593 27.5846 144.439 4.50023 113.734 4.5Z" stroke="#333333" stroke-width="9"/>
<circle cx="113.734" cy="74" r="40" fill="#333333"/>
</svg>
